<?xml version="1.0" standalone="no"?>
<!DOCTYPE svg PUBLIC "-//W3C//DTD SVG 20010904//EN"
 "http://www.w3.org/TR/2001/REC-SVG-20010904/DTD/svg10.dtd">
<svg version="1.0" xmlns="http://www.w3.org/2000/svg"
 width="1350.000000pt" height="1132.000000pt" viewBox="0 0 1350.000000 1132.000000"
 preserveAspectRatio="xMidYMid meet">

<g transform="translate(0.000000,1132.000000) scale(0.100000,-0.100000)"
fill="#000000" stroke="none">
<path d="M306 10598 c17 -18 318 -346 669 -728 351 -382 643 -699 650 -705 6
-5 161 -302 344 -660 184 -357 340 -656 349 -664 8 -9 132 -147 275 -308 143
-161 261 -293 263 -293 2 0 3 358 1 796 l-2 796 -1283 899 c-706 495 -1286
899 -1289 899 -4 0 7 -15 23 -32z"/>
<path d="M11165 9731 l-1280 -898 -3 -799 -2 -799 28 30 c16 17 139 154 272
305 134 151 247 277 250 280 4 3 157 298 340 655 184 358 339 655 345 660 7 6
299 323 650 705 351 382 652 710 669 728 16 17 26 32 20 31 -5 0 -585 -405
-1289 -898z"/>
<path d="M4526 9318 c44 -187 163 -706 170 -738 5 -24 98 -428 175 -765 22
-93 42 -181 45 -195 3 -14 11 -52 19 -85 19 -78 84 -363 91 -395 6 -30 109
-479 129 -565 8 -33 37 -160 65 -282 28 -123 52 -228 54 -235 3 -7 12 -47 21
-89 l17 -75 529 -152 529 -151 528 151 c290 83 528 151 529 152 2 1 41 171 88
377 47 206 115 502 151 659 36 157 85 371 109 475 88 382 377 1643 401 1750
13 61 35 154 48 208 l23 97 -1877 0 -1877 0 33 -142z"/>
<path d="M2844 7198 c-4 -13 -9 -25 -9 -28 -1 -3 -9 -21 -17 -40 -43 -96 -46
-108 -35 -120 9 -9 9 -11 -2 -8 -14 3 -74 -125 -63 -136 3 -3 1 -6 -5 -6 -10
0 -26 -39 -28 -66 0 -6 -6 -19 -14 -27 -7 -9 -14 -27 -15 -41 0 -13 -4 -23 -7
-21 -9 6 -31 -64 -23 -76 4 -7 3 -9 -3 -6 -6 4 -16 -7 -22 -25 -14 -40 -14
-51 1 -42 7 5 8 3 3 -5 -9 -15 56 -341 67 -335 4 3 5 -1 2 -9 -2 -7 0 -36 6
-63 7 -27 14 -60 16 -74 18 -104 59 -286 65 -288 4 -2 5 -10 2 -18 -3 -8 0
-14 6 -14 6 0 11 5 11 10 0 6 5 10 10 10 17 0 110 64 110 76 0 7 8 11 18 10 9
0 16 5 14 12 -1 8 2 11 7 7 14 -8 242 145 234 158 -3 6 -1 7 5 4 11 -7 176 96
167 105 -3 2 1 5 8 5 21 0 67 35 60 46 -3 5 -1 7 5 4 11 -7 176 96 167 105 -3
2 1 5 8 5 21 0 67 35 60 46 -3 5 -1 7 5 4 5 -4 34 9 63 28 30 19 57 35 60 35
4 0 9 7 13 15 5 13 -49 75 -65 75 -4 0 -28 20 -55 44 -26 25 -52 42 -56 40 -4
-3 -8 -1 -8 5 0 13 -109 97 -121 93 -6 -1 -8 1 -5 6 6 11 -53 57 -74 57 -8 0
-15 6 -15 13 0 20 -55 61 -74 55 -13 -4 -13 -3 -2 5 11 8 9 12 -10 22 -13 7
-40 28 -59 47 -19 18 -40 33 -47 33 -7 0 -13 4 -13 9 0 10 -184 161 -197 161
-4 1 -28 21 -53 45 -25 25 -51 43 -58 40 -7 -3 -11 -1 -8 4 3 5 -1 14 -8 20
-11 10 -16 7 -22 -11z m23 -73 c0 -8 -4 -12 -9 -9 -5 3 -6 10 -3 15 9 13 12
11 12 -6z m-33 -33 c3 -5 -1 -9 -9 -9 -8 0 -12 4 -9 9 3 4 7 8 9 8 2 0 6 -4 9
-8z m90 -1180 c3 -5 -1 -9 -9 -9 -8 0 -12 4 -9 9 3 4 7 8 9 8 2 0 6 -4 9 -8z"/>
<path d="M9872 7207 c-7 -8 -8 -18 -4 -22 4 -5 2 -5 -5 -1 -11 6 -92 -55 -101
-76 -2 -5 -8 -8 -14 -8 -8 0 -136 -99 -174 -135 -6 -5 -45 -37 -87 -70 -54
-41 -73 -62 -64 -68 8 -6 7 -7 -4 -4 -9 3 -30 -6 -47 -21 -17 -15 -51 -43 -76
-61 -25 -19 -42 -39 -40 -43 3 -5 1 -7 -5 -6 -12 4 -121 -80 -121 -93 0 -6 -4
-8 -8 -5 -4 2 -30 -15 -56 -40 -27 -24 -51 -44 -53 -44 -11 0 -78 -64 -73 -69
3 -3 8 -5 13 -4 4 2 7 -1 7 -6 0 -14 111 -81 123 -74 5 3 7 1 4 -4 -7 -11 39
-46 60 -46 7 0 11 -3 8 -5 -9 -9 156 -112 167 -105 6 3 8 1 5 -4 -7 -11 39
-46 60 -46 7 0 10 -3 8 -6 -3 -7 107 -82 122 -83 4 -1 13 -8 19 -16 6 -8 16
-12 23 -8 7 5 10 2 9 -6 -2 -7 5 -12 15 -12 9 1 17 -3 17 -10 1 -15 188 -138
201 -131 5 4 8 1 7 -7 -2 -7 5 -12 15 -12 9 1 17 -3 17 -10 0 -16 99 -78 115
-72 9 3 12 0 8 -10 -3 -7 0 -14 5 -14 12 0 35 97 36 152 1 20 4 34 7 32 4 -2
16 47 28 109 12 61 25 120 28 131 3 13 1 16 -7 11 -7 -4 -5 4 4 18 9 13 16 29
15 33 -1 5 0 16 4 24 14 35 58 274 53 287 -3 8 -1 11 4 8 13 -8 13 5 -1 43 -6
18 -16 29 -22 25 -6 -3 -7 -1 -3 6 8 12 -14 82 -23 76 -3 -2 -7 8 -7 22 -1 13
-9 32 -18 42 -9 10 -14 20 -11 23 8 8 -91 238 -100 230 -4 -4 -5 -1 -1 6 4 6
4 18 -1 25 -4 6 -8 17 -9 22 -1 6 -10 28 -19 50 -10 22 -19 45 -20 52 -2 6 -7
19 -12 28 -8 14 -11 14 -21 2z m13 -76 c3 -5 2 -12 -3 -15 -5 -3 -9 1 -9 9 0
17 3 19 12 6z m39 -39 c3 -5 -1 -9 -9 -9 -8 0 -12 4 -9 9 3 4 7 8 9 8 2 0 6
-4 9 -8z m-330 -1020 c3 -5 -1 -9 -9 -9 -8 0 -12 4 -9 9 3 4 7 8 9 8 2 0 6 -4
9 -8z m240 -160 c3 -5 -1 -9 -9 -9 -8 0 -12 4 -9 9 3 4 7 8 9 8 2 0 6 -4 9 -8z"/>
<path d="M3565 5962 c-215 -191 -392 -351 -394 -356 -1 -4 203 -190 455 -413
l458 -404 365 366 366 366 -58 55 c-32 29 -61 54 -65 54 -4 0 -77 -77 -162
-171 -85 -94 -228 -241 -318 -326 l-163 -156 -22 20 c-186 169 -452 402 -560
492 -76 63 -134 117 -130 121 4 4 171 141 370 305 l362 298 -51 46 c-28 25
-54 47 -57 48 -3 1 -182 -154 -396 -345z"/>
<path d="M8723 6261 l-52 -49 162 -133 c89 -74 255 -211 369 -305 l207 -172
-137 -113 c-111 -93 -430 -373 -554 -487 l-27 -25 -163 156 c-90 86 -233 232
-318 326 -85 94 -158 171 -162 171 -4 0 -33 -25 -65 -54 l-58 -55 365 -366
366 -366 458 405 c252 222 459 406 459 408 2 5 -781 702 -791 705 -4 1 -30
-20 -59 -46z"/>
<path d="M3853 5755 c-101 -80 -183 -147 -183 -149 0 -2 38 -39 84 -81 l85
-76 94 75 c52 42 99 76 105 76 5 0 48 -30 94 -67 45 -36 89 -71 95 -76 9 -6
36 13 93 63 44 40 80 78 80 84 -1 9 -338 285 -359 293 -3 2 -88 -62 -188 -142z"/>
<path d="M8518 5757 c-97 -78 -177 -147 -177 -153 -1 -6 35 -44 79 -84 57 -50
84 -69 93 -63 6 5 50 40 95 76 46 37 89 67 94 67 6 0 53 -34 105 -76 l94 -75
85 77 c82 74 85 78 67 95 -27 27 -347 279 -353 278 -3 0 -85 -64 -182 -142z"/>
<path d="M6155 4650 c-197 -137 -678 -465 -702 -479 -10 -5 47 -238 227 -930
223 -856 256 -973 461 -1632 122 -390 225 -709 229 -709 3 0 108 327 233 728
212 677 244 789 462 1632 129 498 232 906 228 908 -8 2 -289 193 -713 485
-111 75 -206 137 -213 136 -7 0 -102 -63 -212 -139z"/>
<path d="M2880 4349 c-201 -87 -437 -190 -525 -228 -150 -66 -822 -357 -1020
-443 -142 -61 -145 -63 -143 -69 7 -17 1972 -2268 1977 -2264 2 3 22 47 44 98
83 197 171 405 193 460 59 142 77 185 167 397 181 430 360 856 404 965 25 61
53 129 64 152 10 23 34 79 53 125 19 46 44 106 56 133 12 28 46 109 75 180 30
72 74 177 98 235 75 176 158 374 168 398 l9 22 -628 -1 -627 -1 -365 -159z"/>
<path d="M8249 4488 c5 -13 34 -81 64 -153 30 -71 80 -191 111 -265 31 -74 61
-144 66 -155 5 -11 32 -76 60 -145 57 -138 131 -312 161 -377 10 -24 19 -46
19 -49 0 -3 6 -20 14 -37 8 -18 37 -86 65 -152 27 -66 75 -181 107 -255 31
-74 67 -160 79 -190 63 -152 128 -308 140 -335 8 -16 37 -86 66 -155 28 -69
57 -138 65 -155 7 -16 36 -86 65 -155 58 -142 185 -445 199 -475 5 -11 16 -38
25 -60 l16 -40 22 25 c12 14 456 524 987 1134 531 610 966 1111 968 1115 2 6
0 8 -143 69 -49 22 -227 99 -395 172 -168 73 -350 152 -405 175 -55 24 -329
142 -609 264 l-509 221 -623 0 -624 0 9 -22z"/>
</g>
</svg>
